<?xml version="1.0" encoding="utf-8"?>
<!-- Generator: Adobe Illustrator 22.0.1, SVG Export Plug-In . SVG Version: 6.00 Build 0)  -->
<svg version="1.1" id="Layer_1" xmlns="http://www.w3.org/2000/svg" xmlns:xlink="http://www.w3.org/1999/xlink" x="0px" y="0px"
	 viewBox="0 0 684.9 772.9" style="enable-background:new 0 0 684.9 772.9;" xml:space="preserve">
<style type="text/css">
	.st0{clip-path:url(#SVGID_2_);fill:#66318C;}
	.st1{clip-path:url(#SVGID_2_);fill:#FFFFFF;}
	.st2{clip-path:url(#SVGID_2_);}
	.st3{fill:#FFFFFF;}
</style>
<g>
	<defs>
		<path id="SVGID_1_" d="M679.3,402.7c3.7-20.2,5.7-40.9,5.7-61.8C684.9,152.9,532.1,0,344.1,0c-0.3,0-0.6,0-0.9,0
			c-0.3,0-0.6,0-0.9,0C153.2,0,0,153.2,0,342.3C0,504.9,113.3,641,265.3,675.9l-22.5,22.5c-8.2,8.2-12.8,19.2-12.8,30.9
			c0,11.7,4.5,22.6,12.8,30.9c8.2,8.2,19.2,12.8,30.9,12.8c11.7,0,22.6-4.5,30.9-12.8l77.9-77.9C532.6,664.7,653,550,679.3,402.7z"
			/>
	</defs>
	<clipPath id="SVGID_2_">
		<use xlink:href="#SVGID_1_"  style="overflow:visible;"/>
	</clipPath>
	<path class="st0" d="M273.7,776.2c-12.5,0-24.3-4.9-33.2-13.8c-8.9-8.9-13.7-20.6-13.7-33.2c0-12.5,4.9-24.3,13.8-33.2l18.4-18.4
		c-35.7-8.9-69.6-23.3-100.8-43c-32.3-20.4-60.9-45.9-84.9-75.7C48.9,529,30,495.4,17,459.2C3.5,421.8-3.3,382.4-3.3,342.3
		c0-46.7,9.1-91.9,27.2-134.5c17.4-41.2,42.3-78.1,74.1-109.8c31.7-31.7,68.7-56.7,109.8-74.1c42.6-18,87.9-27.2,134.5-27.2
		c0.2,0,0.9,0,0.9,0s0.7,0,0.9,0c189.8,0,344.1,154.4,344.1,344.1c0,20.9-1.9,41.9-5.7,62.4c-6.5,36.6-18.8,71.7-36.7,104.3
		c-17.4,31.9-39.7,60.8-66.2,85.9c-26.6,25.1-56.8,45.8-89.7,61.3c-33.5,15.8-69.1,26.1-105.9,30.5l-77.1,77.1
		C298,771.3,286.2,776.2,273.7,776.2z"/>
	<path class="st1" d="M344.1,30.2c-171.3,0-310.6,139.3-310.6,310.6c0,167.5,133.2,304.3,299.3,310.3l-68.6,68.6
		c-5.3,5.3-5.3,13.8,0,19c2.6,2.6,6.1,3.9,9.5,3.9s6.9-1.3,9.5-3.9l91.3-91.3c5.3-5.3,5.3-13.8,0-19l-91.3-91.3
		c-5.3-5.3-13.8-5.3-19,0c-5.3,5.3-5.3,13.8,0,19l68,68C181.2,618,60.4,493.3,60.4,340.8c0-156.4,127.3-283.7,283.7-283.7
		s283.7,127.3,283.7,283.7c0,110.6-65,211.9-165.6,258.1c-6.8,3.1-9.7,11.1-6.6,17.8c3.1,6.8,11.1,9.7,17.8,6.6
		C583.6,572.8,654.7,462,654.7,340.8C654.7,169.6,515.4,30.2,344.1,30.2z"/>
	<g class="st2">
		<g>
			<path class="st3" d="M131.3,371.9c3.3-30,24.2-50.2,58.1-50.2c32.7,0,54.6,19.2,54.6,49.2c0,13.4-5.3,28.4-18.1,36.3
				c17.4,6.9,24.4,26.6,24.4,42.5c0,34.2-26.9,55.5-63.2,55.5c-34.7,0-60.9-23.8-62.9-55h37.2c0.8,13.9,10.8,25.4,27.2,25.4
				c16.6,0,25.4-14.3,25.4-28c0-13.9-10.1-28.9-26.7-27.7l-6.8,0.5v-24.3h4c15.9,0,24.2-9.5,24.2-24c0-11.6-7.8-22.2-21.6-22.2
				c-13.1,0-20.1,11.3-20.6,22H131.3z"/>
			<path class="st3" d="M367.8,337.2l-39,50.6l0.5,0.5c4.3-1.6,9.6-2.3,14.8-2.3c34.7,0,56.4,27.7,56.4,57.8
				c0,35.8-27.9,61.5-66.9,61.5c-37.5,0-66.4-24.3-66.4-59.2c0-20.8,10.8-41.4,23.2-58.2l50.3-68.6L367.8,337.2z M363.3,445.2
				c0-15.7-11.3-32.6-29.9-32.6c-18.6,0-30.2,16.9-30.2,32.6c0,15.5,11.6,32.4,30.2,32.4C352,477.5,363.3,460.7,363.3,445.2z"/>
			<path class="st3" d="M548,413.7c0,37.2-17.6,91.5-67.9,91.5s-67.9-54.3-67.9-91.5c0-37.4,17.1-92,67.9-92S548,376.3,548,413.7z
				 M448.4,413.3c0,17.3,5.5,62.4,31.7,62.4c26.4,0,31.7-45.1,31.7-62.4c0-17.6-5.3-61.9-31.7-61.9
				C453.9,351.3,448.4,395.7,448.4,413.3z"/>
		</g>
		<path class="st3" d="M557.6,355c-9.1,0-15.6-7.3-15.6-18.1c0-10.8,6.4-18.1,15.6-18.1c9,0,15.6,7.5,15.6,18.1
			C573.2,347.6,566.7,355,557.6,355z M557.7,328.8c-4,0-8.3,3-8.3,8.1s4.4,8.1,8.3,8.1c4,0,8.1-3,8.1-8.1S561.7,328.8,557.7,328.8z"
			/>
	</g>
	<g class="st2">
		<path class="st3" d="M148.1,291.7h-11.6V187.8h17.1c9,0,18.2,0.3,25.8,5.5c7.7,5.4,11.7,14.5,11.7,23.7c0,8.4-3.4,17-9.9,22.3
			c-7,5.8-16,6.9-24.7,6.9h-8.4V291.7z M148.1,235.5h7.7c12.8,0,23.7-3.9,23.7-18.7c0-17-13.6-18.2-27.2-18.2h-4.3V235.5z"/>
		<path class="st3" d="M224.2,262.2l-12.5,29.5H199l48-108.9l46.7,108.9h-12.8l-12.3-29.5H224.2z M246.7,209.8l-17.8,41.6H264
			L246.7,209.8z"/>
		<path class="st3" d="M330.3,291.7h-11.6V187.8h15c19.7,0,38,5.2,38,28.7c0,16-10.1,27.3-26.1,28.7l33.1,46.6h-14.2l-31.4-45.6
			h-2.9V291.7z M330.3,235.9h3.6c13.1,0,26.3-2.5,26.3-18.6c0-17.1-12.5-18.8-26.5-18.8h-3.4V235.9z"/>
		<path class="st3" d="M432.1,291.7h-11.6v-93.2h-25.1v-10.8h62v10.8h-25.4V291.7z"/>
		<path class="st3" d="M473.7,187.8h13.4l26.5,46.3l26.5-46.3h13.4L519.3,247v44.7h-11.6V247L473.7,187.8z"/>
	</g>
</g>
</svg>
