<?xml version="1.0" encoding="utf-8"?>
<!-- Generator: Adobe Illustrator 22.0.1, SVG Export Plug-In . SVG Version: 6.00 Build 0)  -->
<svg version="1.1" id="Layer_1" xmlns="http://www.w3.org/2000/svg" xmlns:xlink="http://www.w3.org/1999/xlink" x="0px" y="0px"
	 viewBox="0 0 210.8 25.3" style="enable-background:new 0 0 210.8 25.3;" xml:space="preserve">
<g>
	<path d="M17,0h6.7c0.3,0,0.5,0.1,0.7,0.3c0.2,0.2,0.3,0.4,0.3,0.7v23.3c0,0.3-0.1,0.5-0.3,0.7c-0.2,0.2-0.4,0.3-0.7,0.3h-5.8
		c-0.6,0-1.1-0.3-1.4-0.8l-7.8-10v9.8c0,0.3-0.1,0.5-0.3,0.7c-0.2,0.2-0.4,0.3-0.7,0.3H1c-0.3,0-0.5-0.1-0.7-0.3
		C0.1,24.8,0,24.5,0,24.3V1c0-0.3,0.1-0.5,0.3-0.7C0.5,0.1,0.7,0,1,0h5.8c0.6,0,1,0.2,1.4,0.7l7.8,10.8V1c0-0.3,0.1-0.5,0.3-0.7
		C16.5,0.1,16.8,0,17,0z"/>
	<path d="M40.4,18.2h14.4c0.3,0,0.5,0.1,0.7,0.3c0.2,0.2,0.3,0.4,0.3,0.7v5.1c0,0.3-0.1,0.5-0.3,0.7c-0.2,0.2-0.4,0.3-0.7,0.3H32
		c-0.3,0-0.5-0.1-0.7-0.3c-0.2-0.2-0.3-0.4-0.3-0.7V1c0-0.3,0.1-0.5,0.3-0.7C31.5,0.1,31.7,0,32,0h22.4c0.3,0,0.5,0.1,0.7,0.3
		c0.2,0.2,0.3,0.4,0.3,0.7v5.1c0,0.3-0.1,0.5-0.3,0.7c-0.2,0.2-0.4,0.3-0.7,0.3h-14v2.3h12c0.3,0,0.5,0.1,0.7,0.3
		c0.2,0.2,0.3,0.4,0.3,0.7V15c0,0.3-0.1,0.5-0.3,0.7c-0.2,0.2-0.4,0.3-0.7,0.3h-12V18.2z"/>
	<path d="M87,24c0.1,0.1,0.1,0.2,0.1,0.4c0,0.2-0.1,0.4-0.2,0.5c-0.2,0.2-0.3,0.2-0.6,0.2h-7.7c-0.6,0-1.1-0.3-1.5-0.8L73.6,19
		l-3.4,5.4c-0.4,0.6-0.9,0.8-1.5,0.8h-7.8c-0.2,0-0.4-0.1-0.6-0.2c-0.2-0.2-0.2-0.3-0.2-0.5c0-0.2,0-0.3,0.1-0.4l8-12.2L61.1,1.2
		C61.1,1.1,61,1,61,0.8c0-0.2,0.1-0.4,0.2-0.5C61.4,0.1,61.6,0,61.8,0h7.8c0.6,0,1.1,0.3,1.5,0.9l2.8,4.6l3-4.7
		C77.3,0.3,77.8,0,78.4,0h7.7c0.2,0,0.4,0.1,0.6,0.2c0.2,0.2,0.2,0.3,0.2,0.5c0,0.2,0,0.3-0.1,0.4l-7.5,11.1L87,24z"/>
	<path d="M91.8,0h24.8c0.3,0,0.5,0.1,0.7,0.3c0.2,0.2,0.3,0.4,0.3,0.7v5.8c0,0.3-0.1,0.5-0.3,0.7c-0.2,0.2-0.4,0.3-0.7,0.3h-7.7
		v16.5c0,0.3-0.1,0.5-0.3,0.7c-0.2,0.2-0.4,0.3-0.7,0.3h-7.4c-0.3,0-0.5-0.1-0.7-0.3c-0.2-0.2-0.3-0.4-0.3-0.7V7.8h-7.7
		c-0.3,0-0.5-0.1-0.7-0.3c-0.2-0.2-0.3-0.4-0.3-0.7V1c0-0.3,0.1-0.5,0.3-0.7C91.3,0.1,91.6,0,91.8,0z"/>
	<path d="M131.5,9.9v5.4c0,0.9,0.3,1.6,1,2.1c0.7,0.5,1.5,0.7,2.6,0.7c1.1,0,1.8-0.2,2.3-0.5c0.5-0.3,0.9-0.8,1.2-1.4
		c0.3-0.6,0.8-0.9,1.3-0.9h7.8c0.2,0,0.4,0.1,0.6,0.2c0.2,0.2,0.2,0.3,0.2,0.5c0,2.2-1.1,4.2-3.2,6c-1.1,0.9-2.5,1.6-4.2,2.2
		c-1.8,0.6-3.8,0.8-6.2,0.8s-4.5-0.4-6.5-1.1c-2-0.7-3.5-1.9-4.8-3.5c-1.2-1.6-1.8-3.6-1.8-6v-4.1c0-2.4,0.6-4.4,1.8-6
		c2.3-3,6.2-4.6,11.6-4.6c2.2,0,4.2,0.3,5.9,0.8c1.8,0.6,3.2,1.3,4.2,2.2c2.1,1.8,3.2,3.8,3.2,6c0,0.2-0.1,0.4-0.2,0.5
		c-0.2,0.2-0.3,0.2-0.6,0.2h-7.8c-0.5,0-1-0.3-1.3-0.9c-0.3-0.6-0.7-1.1-1.2-1.4C137,7.2,136.2,7,135.1,7c-1.1,0-1.9,0.2-2.6,0.7
		C131.9,8.3,131.5,9,131.5,9.9z"/>
	<path d="M158.6,25.2h-6.8c-0.2,0-0.4-0.1-0.6-0.2c-0.2-0.2-0.2-0.3-0.2-0.5s0-0.3,0-0.3l7.8-23c0.2-0.8,0.8-1.2,1.6-1.2h10
		c0.9,0,1.4,0.4,1.6,1.2l7.8,23c0,0.1,0,0.2,0,0.3s-0.1,0.3-0.2,0.5c-0.2,0.2-0.3,0.2-0.6,0.2h-6.8c-0.8,0-1.3-0.4-1.6-1.2l-0.9-2.5
		h-8.8l-0.9,2.5C160,24.8,159.4,25.2,158.6,25.2z M168.1,14.5L165.6,7l-2.6,7.5H168.1z"/>
	<path d="M186.3,0h13.5c3.4,0,6.1,0.8,8.1,2.5c2,1.7,3,3.8,3,6.4c0,2.6-0.8,4.7-2.5,6.2c-1.7,1.5-4.5,2.3-8.6,2.3H195v6.9
		c0,0.3-0.1,0.5-0.3,0.7c-0.2,0.2-0.4,0.3-0.7,0.3h-7.7c-0.3,0-0.5-0.1-0.7-0.3c-0.2-0.2-0.3-0.4-0.3-0.7V1c0-0.3,0.1-0.5,0.3-0.7
		C185.8,0.1,186,0,186.3,0z M195,6.7v4h4.6c0.6,0,1-0.2,1.3-0.5c0.3-0.3,0.5-0.8,0.5-1.4c0-0.6-0.2-1.1-0.5-1.5
		c-0.3-0.4-0.8-0.6-1.4-0.6H195z"/>
</g>
</svg>
